<svg width="26" height="27" viewBox="0 0 26 27" fill="none" xmlns="http://www.w3.org/2000/svg">
<path d="M1.07227 0.703125H4.35938L9.57971 13.6938L10.8369 16.8223L11.953 19.5996L12.7441 21.5684L13.5336 19.5996L14.6474 16.8223L15.9475 13.5801L21.1113 0.703125H24.416L17.4745 17.7754L16.7328 19.5996L14.0098 26.2969H11.4434C10.449 23.8431 9.56198 21.654 8.7295 19.5996C8.49804 19.0284 8.2708 18.4676 8.04665 17.9145C5.79309 12.3532 3.85166 7.56211 1.07227 0.703125ZM0 0.703125H2.90039L3.375 16.3125V26.2969H0V0.703125ZM22.5703 0.703125H25.4707V26.2969H22.0957V16.3125L22.5703 0.703125Z" fill="#A11E15"/>
<path fill-rule="evenodd" clip-rule="evenodd" d="M13.5273 0.703125H14.2656L24.0566 26.2969H20.5762L18.1385 19.5996L17.4745 17.7754L16.7328 19.5996H13.5336L14.6474 16.8223H17.1276L15.9475 13.5801L12.781 4.88031L9.57971 13.6938L8.44337 16.8223H10.8369L11.953 19.5996H8.7295L8.04665 17.9145L7.43457 19.5996L5.00195 26.2969H1.53906L11.2949 0.703125H12.0332H13.5273Z" fill="#A11E15"/>
<line x1="7.0293" y1="13.7969" x2="19.0293" y2="13.7969" stroke="#A11E15" stroke-width="3"/>
</svg>
